<?xml version="1.0" encoding="utf-8"?>
<!-- Generator: Adobe Illustrator 18.0.0, SVG Export Plug-In . SVG Version: 6.00 Build 0)  -->
<!DOCTYPE svg PUBLIC "-//W3C//DTD SVG 1.1//EN" "http://www.w3.org/Graphics/SVG/1.1/DTD/svg11.dtd">
<svg version="1.1" id="Layer_1" xmlns="http://www.w3.org/2000/svg" xmlns:xlink="http://www.w3.org/1999/xlink" x="0px" y="0px"
	 viewBox="153 243 306 306" enable-background="new 153 243 306 306" xml:space="preserve">
<g id="Layer_4">
	<g>
		<g>
			<g>
				<path fill="#231F20" d="M306,255.1c-77.8,0-140.9,63.1-140.9,140.9c0,77.8,63.1,140.9,140.9,140.9S446.9,473.8,446.9,396
					S383.8,255.1,306,255.1z M306,510.8c-63.4,0-114.8-51.4-114.8-114.8S242.6,281.2,306,281.2S420.8,332.6,420.8,396
					S369.4,510.8,306,510.8z"/>
			</g>
		</g>
		<g>
			<g>
				<path fill="#231F20" d="M305.7,303.1L305.7,303.1l-2.5,0v25.6h2.4v0.1c37.3,0,67.6,30.3,67.6,67.6c0,37.3-30.2,67.6-67.6,67.6v0
					h-45.5v25.7h45.5v0c51.5,0,93.3-41.8,93.3-93.3C398.9,344.9,357.2,303.1,305.7,303.1z"/>
			</g>
		</g>
		<g>
			<g>
				<polygon fill="#231F20" points="284.8,422.5 284.8,303.3 260.1,303.3 260.1,447.7 318.4,447.7 318.4,422.5 				"/>
			</g>
		</g>
	</g>
</g>
</svg>
